<svg version="1.1" id="Capa_1" xmlns="http://www.w3.org/2000/svg" xmlns:xlink="http://www.w3.org/1999/xlink" x="0px" y="0px"
	 viewBox="0 0 1177.4 856" enable-background="new 0 0 1177.4 856" xml:space="preserve">
<g id="maniqui">
	<path fill="none" stroke="#686565" stroke-miterlimit="10" d="M440.3,95.5c0.3,3,0.5,7.4,0.2,12.7c-0.2,3.2-0.6,9-1.3,11.4
		c-3.4,12.4-32.3,5.2-47.9,19.4c-11.1,10.1-11.6,28.7-12.5,66.1c-0.3,10.3-1,20.6-1.1,30.9c-0.1,8.1,0,12.9-1.3,20.1
		c-1.5,8.3-3.3,10.8-5.4,19c-2.5,9.6-3,17-3.5,25.5c-0.6,10.4,0.3,11.8,1.3,37.4c0.5,12.6,0.8,18.9,0.6,26.6c0,0-1,18.8-1.1,26.6
		c0,2.5,0,5,0,5.3c0.1,2.7,0.1,4.6,0.2,6c0.3,2.6,1.1,3.9,4.5,9.8c5.1,8.9,5.3,9.7,7,10.9c2.9,2.1,7.4,3.9,8.6,2.6
		c0.2-0.2,0.3-0.5,0.3-0.6c0.3-1.3-1.8-2.6-3.5-4.2c0,0-1.7-1.6-3.7-4.7c-1.7-2.8-2.2-5.5-2.5-8.4c-0.3-3.1-2.2-20.7,0.7-21.2
		c1.3-0.3,3.4,3.1,4.3,5.5c1.3,3.5,0.5,5.8,2.6,8.5c0.4,0.5,1.7,2.2,2.6,1.9c1.3-0.4,0.3-4.9,0.2-13.2c-0.1-9,1-10.7-0.8-13.2
		c-4.1-5.6-4.5-6.1-4.5-6.1c-0.3-0.3-1-1.1-1.3-2.3c-0.3-1.4,0-2.5,0.1-2.9c1.4-5,9-46.6,11.1-60.1c0.5-3,1.1-6.7,1.6-11.8
		c1.8-17.2,0-21.9,1.1-34c1.1-11.7,3-9.8,6.5-28.9c3.3-17.8,3.2-28.3,4.7-28.3c1.4,0,0.7,9.8,5.3,26.2c2.8,10,4.2,15.1,4.9,16.9
		c2,5.5,4.1,9.7,3,14.4c-0.8,3.6-2.8,7.1-2.8,7.1c-1,1.9-2,3.1-2.2,3.4c-2.6,3.4-12.6,23-17.1,40c-6.1,23.2-4.3,50.9-2.8,71.1
		c2.1,29.1,7.5,64.9,10.3,83.4c0,0,1.3,9,2.5,23.3c1.6,19.5,1.1,28.4-0.1,34.6c-0.2,1.2-1.5,7.7-2.3,11.5c-1,5-1.7,8.5-1.7,8.6
		c-4.8,24,15.8,134.2,15.8,134.2c0.5,2.6,0.5,4.2,0.1,5.8c-0.6,2.5-2.5,3.5-2.5,6.1c0,0.5,0,1.4,0.4,2.5c0.6,1.5,1.6,1.8,2,3.1
		c0.4,1.2,0,2.2-0.2,2.9c-1,5.1-5.4,22.8-6.5,30.1c-1.3,8.4-2.2,13.8,0.6,19.1c6,11.4,25.3,15.7,31,9.7c1.2-1.2,1.9-2.9,0.6-14.6
		c-1-9.4-4.7-38.9-4.9-44.4c0-1.3-0.1-2.5,0.3-4c0.5-2.3,1.2-2.9,1.2-4.3c-0.1-2.3-2.3-3.9-2.6-4.3c-6.5-5.6,3.6-102.8,5.2-121.4
		c2.4-28.5-3.3-19.6-2.4-64c0.7-33.1,4.1-49.4,7.4-97c0.8-12,2.1-30,2.7-52.2"/>
	<path fill="none" stroke="#686565" stroke-miterlimit="10" d="M485.6,63.2c-0.7,7.6-1.5,15.1-5.9,23.2
		c-2.2,3.9-10.6,19.5-23.1,19.2c-10.3-0.2-17.3-11.1-20.9-16.7c-5.9-9.1-7-17.9-8.1-25.6c-1.4-10.4-2.2-16.2,0.5-22.9
		c3.9-9.7,14.5-19.6,28.5-19.5c13.9,0.2,23.9,10.3,27.7,19.3C487.2,46.9,486.6,53,485.6,63.2z"/>
	<path fill="none" stroke="#686565" stroke-miterlimit="10" d="M429.7,74.5c-3.7,0.2-8.7-10.9-5.9-14c0.8-0.9,2.2-0.9,2.9-0.9"/>
	<path fill="none" stroke="#686565" stroke-miterlimit="10" d="M483.9,75.1c3.7,0,8.1-11.4,5.2-14.3c-0.9-0.9-2.3-0.8-2.9-0.7"/>
	<path fill="none" stroke="#686565" stroke-miterlimit="10" d="M448.5,199.7c-1.9,2-9.1,9.4-20.3,10c-2.6,0.1-9.3,0.5-15.6-3.9
		c-7.4-5.2-9-13.4-9.5-15.8c-0.9-4.3-0.5-7.9-0.1-10.2"/>
	<path fill="none" stroke="#686565" stroke-miterlimit="10" d="M466,199.4c2.7,2.5,10.6,9.3,22,9.5c3,0.1,8.4,0.1,13.7-3.4
		c7.3-4.9,9-13.3,9.5-15.8c0.9-4.3,0.5-7.9,0.1-10.2"/>
	<path fill="none" stroke="#686565" stroke-miterlimit="10" d="M473.8,95.4c-0.3,3-0.5,7.4-0.2,12.7c0.2,3.2,0.6,9,1.3,11.4
		c3.4,12.4,32.3,5.2,47.9,19.4c11.1,10.1,11.6,28.7,12.5,66.1c0.3,10.3,1,20.6,1.1,30.9c0.1,8.1,0,12.9,1.3,20.1
		c1.5,8.3,3.3,10.8,5.4,19c2.5,9.6,3,17,3.5,25.5c0.6,10.4-0.3,11.8-1.3,37.4c-0.5,12.6-0.8,18.9-0.6,26.6c0,0,1,18.8,1.1,26.6
		c0,2.5,0,5,0,5.3c-0.1,2.7-0.1,4.6-0.2,6c-0.3,2.6-1.1,3.9-4.5,9.8c-5.1,8.9-5.3,9.7-7,10.9c-2.9,2.1-7.4,3.9-8.6,2.6
		c-0.2-0.2-0.3-0.5-0.3-0.6c-0.3-1.3,1.8-2.6,3.5-4.2c0,0,1.7-1.6,3.7-4.7c1.7-2.8,2.2-5.5,2.5-8.4c0.3-3.1,2.2-20.7-0.7-21.2
		c-1.3-0.3-3.4,3.1-4.3,5.5c-1.3,3.5-0.5,5.8-2.6,8.5c-0.4,0.5-1.7,2.2-2.6,1.9c-1.3-0.4-0.3-4.9-0.2-13.2c0.1-9-1-10.7,0.8-13.2
		c4.1-5.6,4.5-6.1,4.5-6.1c0.3-0.3,1-1.1,1.3-2.3c0.3-1.4,0-2.5-0.1-2.9c-1.4-5-9-46.6-11.1-60.1c-0.5-3-1.1-6.7-1.6-11.8
		c-1.8-17.2,0-21.9-1.1-34c-1.1-11.7-3-9.8-6.5-28.9c-3.3-17.8-3.2-28.3-4.7-28.3c-1.4,0-0.7,9.8-5.3,26.2
		c-2.8,10-4.2,15.1-4.9,16.9c-2,5.5-4.1,9.7-3,14.4c0.8,3.6,2.8,7.1,2.8,7.1c1,1.9,2,3.1,2.2,3.4c2.6,3.4,12.6,23,17.1,40
		c6.1,23.2,4.3,50.9,2.8,71.1c-2.1,29.1-7.5,64.9-10.3,83.4c0,0-1.3,9-2.5,23.3c-1.6,19.5-1.1,28.4,0.1,34.6
		c0.2,1.2,1.5,7.7,2.3,11.5c1,5,1.7,8.5,1.7,8.6c4.8,24-15.8,134.2-15.8,134.2c-0.5,2.6-0.5,4.2-0.1,5.8c0.6,2.5,2.5,3.5,2.5,6.1
		c0,0.5,0,1.4-0.4,2.5c-0.6,1.5-1.6,1.8-2,3.1c-0.4,1.2,0,2.2,0.2,2.9c1,5.1,5.4,22.8,6.5,30.1c1.3,8.4,2.2,13.8-0.6,19.1
		c-6,11.4-25.3,15.7-31,9.7c-1.2-1.2-1.9-2.9-0.6-14.6c1-9.4,4.7-38.9,4.9-44.4c0-1.3,0.1-2.5-0.3-4c-0.5-2.3-1.2-2.9-1.2-4.3
		c0.1-2.3,2.3-3.9,2.6-4.3c6.5-5.6-3.6-102.8-5.2-121.4c-2.4-28.5,3.3-19.6,2.4-64c-0.7-33.1-4.1-49.4-7.4-97
		c-0.8-12-2.1-30-2.7-52.2"/>
	<path fill="none" stroke="#686565" stroke-miterlimit="10" d="M448.2,236.1c0.2,0.6,1.3,4,4.8,5.7c0.5,0.2,4.2,2,8.1-0.1
		c3.5-1.8,4.4-5.4,4.6-5.9"/>
	<path fill="none" stroke="#686565" stroke-miterlimit="10" d="M448.2,343.9c0.2,0.6,1.3,4,4.8,5.7c0.5,0.2,4.2,2,8.1-0.1
		c3.5-1.8,4.4-5.4,4.6-5.9"/>
</g>
<g id="bloque_mangas">
	<g id="bloque_informacion" class="collapse">
		<g display="inline">
			<rect x="120.2" y="504.1" fill="none" width="150.6" height="16.3"/>
			<text transform="matrix(1 0 0 1 120.2151 516.6544)" fill="#B37C5B" font-family="'Raleway-Medium'" font-size="17.6742px">E. LARGO MANGAS</text>
		</g>
		
			<rect x="98.7" y="470.7" display="inline" fill="none" stroke="#000000" stroke-width="0.5" stroke-miterlimit="10" width="246.4" height="71.9"/>
		
			<line display="inline" fill="none" stroke="#000000" stroke-width="0.5" stroke-miterlimit="10" x1="187.9" y1="470.7" x2="187.9" y2="371.2"/>
		
			<line display="inline" fill="none" stroke="#000000" stroke-width="0.5" stroke-miterlimit="10" x1="187.9" y1="371.2" x2="315.8" y2="371.2"/>
	</g>
	<g id="linea_mangas">
		<g id="linea">
			<g>
				<line fill="none" stroke="#7F7878" stroke-width="4" stroke-miterlimit="10" x1="315.8" y1="130.6" x2="315.8" y2="371.7"/>
				<path fill="#7F7878" d="M313.1,130.7c0-1.5,1.2-2.7,2.7-2.7c1.5,0,2.7,1.2,2.7,2.7c0,1.5-1.2,2.7-2.7,2.7
					C314.3,133.4,313.1,132.2,313.1,130.7"/>
				<path fill="#7F7878" d="M313.1,371.6c0,1.5,1.2,2.7,2.7,2.7c1.5,0,2.7-1.2,2.7-2.7c0-1.5-1.2-2.7-2.7-2.7
					C314.3,368.9,313.1,370.1,313.1,371.6"/>
			</g>
		</g>
        <g id="letra">
            <text transform="matrix(1 0 0 1 294.4145 109.9783)"><tspan x="0" y="0" font-size="17.6742px" letter-spacing="1">E</tspan><tspan x="12.7" y="0" font-size="17.6742px">.</tspan></text>
        </g>
	</g>
    <g id="medida_numeros" class="collapse">
		<text transform="matrix(1 0 0 1 321.5643 108.2108)"><tspan x="0" y="0" fill="#B37C5B" font-family="'Raleway Medium'" font-size="17.6742px">102.5</tspan><tspan x="41.7" y="0" fill="#B37C5B" font-family="'Raleway Medium'" font-size="10px">cm</tspan></text>
	</g>
</g>
<g id="bloque_tiro">
	<g id="bloque_informacion" class="collapse">
		<g display="inline">
			<rect x="241" y="773.6" fill="none" width="67.7" height="22.6"/>
			<text transform="matrix(1 0 0 1 241.0477 786.1288)" fill="#B37C5B" font-family="'Raleway-Medium'" font-size="17.6742px">H. TIRO</text>
		</g>
		
			<rect x="219.5" y="740.2" display="inline" fill="none" stroke="#000000" stroke-width="0.5" stroke-miterlimit="10" width="162.1" height="71.9"/>
		
			<line display="inline" fill="none" stroke="#000000" stroke-width="0.5" stroke-miterlimit="10" x1="381.7" y1="776.1" x2="437.4" y2="776.1"/>
	</g>
	<g id="linea_tiro">
		<g id="linea">
			
				<line fill="none" stroke="#7F7878" stroke-width="2" stroke-miterlimit="10" stroke-dasharray="5.969,5.969" x1="456.9" y1="757.4" x2="456.9" y2="259"/>
			<line fill="none" stroke="#7F7878" stroke-width="4" stroke-miterlimit="10" x1="456.9" y1="350.1" x2="456.9" y2="258.6"/>
			<path fill="#7F7878" d="M459.5,258.6c0,1.5-1.2,2.7-2.7,2.7s-2.7-1.2-2.7-2.7c0-1.5,1.2-2.7,2.7-2.7S459.5,257.1,459.5,258.6"/>
		</g>
        <g id="letra">
        <text transform="matrix(1 0 0 1 437.4707 776.1443)"><tspan x="0" y="0" font-size="17.6742px" letter-spacing="1">H</tspan><tspan x="14.8" y="0" font-size="17.6742px">.</tspan></text>
        </g>
	</g>
    <g id="medida_numeros" class="collapse">
		<text transform="matrix(1 0 0 1 424.9998 803.8779)"><tspan x="0" y="0" fill="#B37C5B" font-family="'Raleway-Medium'" font-size="17.6742px">102.5</tspan><tspan x="41.7" y="0" fill="#B37C5B" font-family="'Raleway-Medium'" font-size="10px">cm</tspan></text>
	</g>
</g>
<g id="bloque_largo">
	<g id="bloque_informacion" class="collapse">
		<g display="inline">
			<rect x="741.8" y="610.4" fill="none" width="294.7" height="213"/>
			<text transform="matrix(1 0 0 1 741.84 622.9827)"><tspan x="0" y="0" fill="#B37C5B" font-family="'Raleway-Medium'" font-size="17.6742px">I. LARGO</tspan><tspan x="0" y="48" font-size="17.6742px">• Blusa/Chaqueta/Abrigo: Desde los</tspan><tspan x="0" y="72" font-size="17.6742px">hombros</tspan><tspan x="0" y="120" font-size="17.6742px">• Vestido: Desde el centro del escote</tspan><tspan x="0" y="168" font-size="17.6742px">• Pantalón Desde costado de cintura</tspan></text>
		</g>
		
			<rect x="716.6" y="579.9" display="inline" fill="none" stroke="#000000" stroke-width="0.5" stroke-miterlimit="10" width="355.1" height="269.8"/>
		
			<line display="inline" fill="none" stroke="#000000" stroke-width="0.5" stroke-miterlimit="10" x1="607.1" y1="777.6" x2="716.6" y2="777.6"/>
	</g>
	<g id="linea_largo">
		<g id="linea">
        <line fill="none" stroke="#7F7878" stroke-width="4" stroke-miterlimit="10" x1="620.4" y1="133.3" x2="620.4" y2="366.9"/>
            <line fill="none" stroke="#7F7878" stroke-width="2" stroke-miterlimit="10" stroke-dasharray="5.968,5.968" x1="620.6" y1="752.9" x2="620.6" y2="332.8"/>
        <path fill="#7F7878" d="M617.9,133.4c0-1.5,1.2-2.7,2.7-2.7c1.5,0,2.7,1.2,2.7,2.7c0,1.5-1.2,2.7-2.7,2.7
            C619.1,136.1,617.9,134.9,617.9,133.4"/>
        <path fill="#7F7878" d="M617.9,366.9c0,1.5,1.2,2.6,2.6,2.7c1.4,0,2.7-1.2,2.7-2.7c0-1.5-1.2-2.6-2.7-2.6
            C619.1,364.2,617.9,365.4,617.9,366.9"/>
		</g>
        <g id="letra">
            <text transform="matrix(1 0 0 1 597.8024 776.1443)"><tspan x="0" y="0" font-size="17.6742px" letter-spacing="1">I</tspan><tspan x="5.7" y="0" font-size="17.6742px">.</tspan></text>
        </g>
	</g>
    <g id="medida_numeros" class="collapse">
		<text transform="matrix(1 0 0 1 578.5525 801.2453)"><tspan x="0" y="0" fill="#B37C5B" font-family="'Raleway-Medium'" font-size="17.6742px">102.5</tspan><tspan x="41.7" y="0" fill="#B37C5B" font-family="'Raleway-Medium'" font-size="10px">cm</tspan></text>
	</g>
</g>
<g id="bloque_ancho">
	<g id="bloque_informacion" class="collapse">
		<g display="inline">
			<rect x="758" y="668.7" fill="none" width="294.7" height="64.6"/>
			<text transform="matrix(1 0 0 1 758.0248 681.2092)"><tspan x="0" y="0" fill="#B37C5B" font-family="'Raleway-Medium'" font-size="17.6742px">D. ANCHO RUEDO</tspan><tspan x="0" y="24" font-size="17.6742px">• Ancho de la prenda en el borde</tspan><tspan x="0" y="48" font-size="17.6742px">inferior.</tspan></text>
		</g>
		
			<rect x="727.8" y="641.9" display="inline" fill="none" stroke="#000000" stroke-width="0.5" stroke-miterlimit="10" width="355.1" height="111"/>
		
			<line display="inline" fill="none" stroke="#000000" stroke-width="0.5" stroke-miterlimit="10" x1="674" y1="680.8" x2="727.8" y2="680.8"/>
	</g>
	<g id="linea_ancho">
		<g id="linea">
			
				<line fill="none" stroke="#7F7878" stroke-width="2" stroke-miterlimit="10" stroke-dasharray="5.925,5.925" x1="642.3" y1="678.1" x2="420.8" y2="678.1"/>
			<line fill="none" stroke="#7F7878" stroke-width="4" stroke-miterlimit="10" x1="437.6" y1="678.4" x2="422.3" y2="678.4"/>
			<path fill="#7F7878" d="M437.4,675.8c1.5,0,2.6,1.2,2.6,2.6c0,1.5-1.2,2.6-2.6,2.6c-1.5,0-2.6-1.2-2.6-2.6
				C434.8,676.9,436,675.8,437.4,675.8"/>
			<path fill="#7F7878" d="M422.4,675.8c-1.5,0-2.6,1.2-2.6,2.6c0,1.5,1.2,2.6,2.6,2.6c1.5,0,2.6-1.2,2.6-2.6
				C425,676.9,423.8,675.8,422.4,675.8"/>
		</g>
        <g id="letra">
            <text transform="matrix(1 0 0 1 655.7828 681.0255)"><tspan x="0" y="0" font-size="17.6742px">D</tspan><tspan x="12.8" y="0" font-size="17.6742px">.</tspan></text>
        </g>
	</g>
    <g id="medida_numeros" class="collapse">
		<text transform="matrix(1 0 0 1 557.7198 674.6942)"><tspan x="0" y="0" fill="#B37C5B" font-family="'Raleway-Medium'" font-size="17.6742px">102.5</tspan><tspan x="41.7" y="0" fill="#B37C5B" font-family="'Raleway-Medium'" font-size="10px">cm</tspan></text>
	</g>
</g>
<g id="bloque_punio">
	<g id="bloque_informacion" class="collapse">
		<g display="inline">
			<rect x="754.4" y="359.6" fill="none" width="135.4" height="15.7"/>
			<text transform="matrix(1 0 0 1 754.4215 372.11)" fill="#B37C5B" font-family="'Raleway-Medium'" font-size="17.6742px">F. ANCHO PUÑO</text>
		</g>
		
			<rect x="724.2" y="332.8" display="inline" fill="none" stroke="#000000" stroke-width="0.5" stroke-miterlimit="10" width="190.3" height="73.4"/>
		
			<line display="inline" fill="none" stroke="#000000" stroke-width="0.5" stroke-miterlimit="10" x1="670.4" y1="371.7" x2="724.2" y2="371.7"/>
	</g>
	<g id="linea_punio">
		<g id="linea">
			
				<line fill="none" stroke="#7F7878" stroke-width="2" stroke-miterlimit="10" stroke-dasharray="5.925,5.925" x1="643.9" y1="365.6" x2="382.9" y2="365.6"/>
			<line fill="none" stroke="#7F7878" stroke-width="4" stroke-miterlimit="10" x1="383.5" y1="365.9" x2="368.2" y2="365.9"/>
			<path fill="#7F7878" d="M383.4,363.3c1.5,0,2.6,1.2,2.6,2.6c0,1.5-1.2,2.6-2.6,2.6c-1.5,0-2.6-1.2-2.6-2.6
				C380.7,364.5,381.9,363.3,383.4,363.3"/>
			<path fill="#7F7878" d="M368.3,363.3c-1.5,0-2.6,1.2-2.6,2.6c0,1.5,1.2,2.6,2.6,2.6c1.5,0,2.6-1.2,2.6-2.6
				C371,364.5,369.8,363.3,368.3,363.3"/>
		</g>
        <g id="letra">
            <text transform="matrix(1 0 0 1 655.7828 371.217)"><tspan x="0" y="0" font-size="17.6742px">F</tspan><tspan x="10.7" y="0" font-size="17.6742px">.</tspan></text>
        </g>
	</g>
    <g id="medida_numeros" class="collapse">
		<text transform="matrix(1 0 0 1 559.38 361.4241)"><tspan x="0" y="0" fill="#B37C5B" font-family="'Raleway-Medium'" font-size="17.6742px">102.5</tspan><tspan x="41.7" y="0" fill="#B37C5B" font-family="'Raleway-Medium'" font-size="10px">cm</tspan></text>
	</g>
</g>
<g id="bloque_cadera">
	<g id="bloque_informacion" class="collapse">
		<g display="inline">
			<rect x="760.6" y="313.6" fill="none" width="294.7" height="64.3"/>
			<text transform="matrix(1 0 0 1 760.6334 326.1495)"><tspan x="0" y="0" fill="#B37C5B" font-family="'Raleway-Medium'" font-size="17.6742px">C.CADERA</tspan><tspan x="0" y="24" font-size="17.6742px">• Mida alrededor de la cadera en el </tspan><tspan x="0" y="48" font-size="17.6742px">punto más ancho</tspan></text>
		</g>
		
			<rect x="730.4" y="286.8" display="inline" fill="none" stroke="#000000" stroke-width="0.5" stroke-miterlimit="10" width="355.1" height="113.1"/>
		
			<line display="inline" fill="none" stroke="#000000" stroke-width="0.5" stroke-miterlimit="10" x1="676.6" y1="325.7" x2="730.4" y2="325.7"/>
	</g>
	<g id="linea_cadera">
		<g id="linea">
			
				<line fill="none" stroke="#7F7878" stroke-width="2" stroke-miterlimit="10" stroke-dasharray="5.93,5.93" x1="643.9" y1="323.1" x2="446.3" y2="323.1"/>
			<line fill="none" stroke="#7F7878" stroke-width="4" stroke-miterlimit="10" x1="396.2" y1="324" x2="517.7" y2="324"/>
			<path fill="#7F7878" d="M396.4,326.5c-1.5,0-2.7-1.2-2.7-2.7c0-1.5,1.2-2.7,2.7-2.7c1.5,0,2.7,1.2,2.7,2.7
				C399,325.3,397.8,326.5,396.4,326.5"/>
			<path fill="#7F7878" d="M517.6,326.5c1.5,0,2.7-1.2,2.7-2.7c0-1.5-1.2-2.7-2.7-2.7c-1.5,0-2.7,1.2-2.7,2.7
				C514.9,325.3,516.1,326.5,517.6,326.5"/>
		</g>
        <g id="letra">
            <text transform="matrix(1 0 0 1 654.6265 324.6545)"><tspan x="0" y="0" font-size="17.6742px" letter-spacing="1">C</tspan><tspan x="14.2" y="0" font-size="17.6742px">.</tspan></text>
        </g>
	</g>
    <g id="medida_numeros" class="collapse">
		<text transform="matrix(1 0 0 1 554.5655 317.7884)"><tspan x="0" y="0" fill="#B37C5B" font-family="'Raleway-Medium'" font-size="17.6742px">102.5</tspan><tspan x="41.7" y="0" fill="#B37C5B" font-family="'Raleway-Medium'" font-size="10px">cm</tspan></text>
	</g>
</g>
<g id="bloque_escote">
	<g id="bloque_informacion" class="collapse">
		<g display="inline">
			<rect x="770" y="110.7" fill="none" width="82.2" height="20"/>
			<text transform="matrix(1 0 0 1 770.0248 123.275)" fill="#B37C5B" font-family="'Raleway-Medium'" font-size="17.6742px">G.ESCOTE</text>
		</g>
		
			<rect x="739.8" y="83.9" display="inline" fill="none" stroke="#000000" stroke-width="0.5" stroke-miterlimit="10" width="134.7" height="70.6"/>
		
			<line display="inline" fill="none" stroke="#000000" stroke-width="0.5" stroke-miterlimit="10" x1="686" y1="122.8" x2="739.8" y2="122.8"/>
	</g>
	<g id="linea_escote">
		<g id="linea">
			<path fill="none" stroke="#7F7878" stroke-width="4" stroke-linecap="round" stroke-linejoin="round" stroke-miterlimit="10" d="
				M435.5,124c0.1,1.2,0.4,2.5,0.9,3.9c2.6,7.7,9.8,11.1,11.6,11.9c3,8.5,5.9,17,8.9,25.5l8.1-25.8c1.5-0.5,9.6-3.6,12.5-11.6
				c0.5-1.4,0.8-2.7,0.9-3.9"/>
			
				<line fill="none" stroke="#7F7878" stroke-width="2" stroke-miterlimit="10" stroke-dasharray="6.025,6.025" x1="646.8" y1="123.2" x2="478.3" y2="123.2"/>
			<path fill="#7F7878" d="M432.9,124.3c-0.1-1.5,1.1-2.7,2.5-2.8c1.5-0.1,2.7,1.1,2.8,2.5c0.1,1.5-1.1,2.7-2.5,2.8
				C434.2,126.9,432.9,125.8,432.9,124.3"/>
			<path fill="#7F7878" d="M480.9,124.3c0.1-1.5-1.1-2.7-2.5-2.8c-1.5-0.1-2.7,1.1-2.8,2.5c-0.1,1.5,1.1,2.7,2.5,2.8
				C479.6,126.9,480.9,125.8,480.9,124.3"/>
			<path fill="#7F7878" d="M459.5,168.1c0-1.5-1.2-2.7-2.7-2.7s-2.7,1.2-2.7,2.7c0,1.5,1.2,2.7,2.7,2.7S459.5,169.5,459.5,168.1"/>
		</g>
        <g id="letra">
   		<text transform="matrix(1 0 0 1 654.8502 127.135)"><tspan x="0" y="0" font-size="17.6742px" letter-spacing="1">G</tspan><tspan x="14.7" y="0" font-size="17.6742px">.</tspan></text>
        </g>
	</g>
    <g id="medida_numeros" class="collapse">
		<text transform="matrix(1 0 0 1 547.6248 116.8428)" enable-background="new    "><tspan x="0" y="0" fill="#B37C5B" font-family="'Raleway-Medium'" font-size="17.6742px">102.5</tspan><tspan x="41.7" y="0" fill="#B37C5B" font-family="'Raleway-Medium'" font-size="10px">cm</tspan></text>
	</g>
</g>
<g id="bloque_pecho">
	<g id="bloque_informacion" class="collapse">
		<g display="inline">
			<rect x="760.6" y="179.3" fill="none" width="294.7" height="94.6"/>
			<text transform="matrix(1 0 0 1 760.6334 191.8878)"><tspan x="0" y="0" fill="#B37C5B" font-family="'Raleway-Medium'" font-size="17.6742px">A. PECHO</tspan><tspan x="0" y="48" font-size="17.6742px">• Circunferencia máxima del pecho</tspan><tspan x="0" y="72" font-size="17.6742px">incluyendo el busto.</tspan></text>
		</g>
		
			<rect x="730.4" y="152.5" display="inline" fill="none" stroke="#000000" stroke-width="0.5" stroke-miterlimit="10" width="355.1" height="141.3"/>
		
			<line display="inline" fill="none" stroke="#000000" stroke-width="0.5" stroke-miterlimit="10" x1="676.6" y1="191.4" x2="730.4" y2="191.4"/>
	</g>
	<g id="linea_pecho">
		<g id="linea">
			<line fill="none" stroke="#7F7878" stroke-width="4" stroke-miterlimit="10" x1="403.5" y1="191.5" x2="510.8" y2="191.5"/>
			<path fill="#7F7878" d="M510.7,194.2c1.5,0,2.7-1.2,2.7-2.7s-1.2-2.7-2.7-2.7c-1.5,0-2.7,1.2-2.7,2.7S509.2,194.2,510.7,194.2"/>
			<line fill="none" stroke="#7F7878" stroke-width="2" stroke-miterlimit="10" x1="399.8" y1="191.5" x2="401.6" y2="191.5"/>
			
				<line fill="none" stroke="#7F7878" stroke-width="2" stroke-miterlimit="10" stroke-dasharray="6.025,6.025" x1="642.5" y1="191.5" x2="456.5" y2="191.5"/>
			<path fill="#7F7878" d="M403.6,194.2c-1.5,0-2.7-1.2-2.7-2.7s1.2-2.7,2.7-2.7c1.5,0,2.7,1.2,2.7,2.7S405.1,194.2,403.6,194.2"/>
		</g>
        <g id="letra">
     		<text transform="matrix(1 0 0 1 654.6275 192.5071)"><tspan x="0" y="0" font-size="17.6742px" letter-spacing="1">A</tspan><tspan x="13.8" y="0" font-size="17.6742px">.</tspan></text>
        </g>
	</g>
    <g id="medida_numeros" class="collapse">
		<text transform="matrix(1 0 0 1 548.4202 184.7362)"><tspan x="0" y="0" fill="#B37C5B" font-family="'Raleway-Medium'" font-size="17.6742px">102.5</tspan><tspan x="41.7" y="0" fill="#B37C5B" font-family="'Raleway-Medium'" font-size="10px">cm</tspan></text>
	</g>
</g>
<g id="bloque_cintura">
	<g id="bloque_informacion" class="collapse">
		<g display="inline">
			<rect x="784.8" y="245.9" fill="none" width="294.7" height="240"/>
			<text transform="matrix(1 0 0 1 784.8257 258.4425)"><tspan x="0" y="0" fill="#B37C5B" font-family="'Raleway-Medium'" font-size="17.6742px">B. CINTURA</tspan><tspan x="0" y="48" font-size="17.6742px">• Cintura alta: Circunferencia de la </tspan><tspan x="0" y="72" font-size="17.6742px">cintura 4 cm arriba del ombligo</tspan><tspan x="0" y="120" font-size="17.6742px">• Cintura media: Circunferencia de la </tspan><tspan x="0" y="144" font-size="17.6742px">cintura en el punto más estrecho</tspan><tspan x="0" y="192" font-size="17.6742px">• Cintura baja: 4 cm abajo de la parte </tspan><tspan x="0" y="216" font-size="17.6742px">más estrecha del abdomen</tspan></text>
		</g>
		
			<rect x="754.6" y="219.1" display="inline" fill="none" stroke="#000000" stroke-width="0.5" stroke-miterlimit="10" width="355.1" height="293.6"/>
		
			<line display="inline" fill="none" stroke="#000000" stroke-width="0.5" stroke-miterlimit="10" x1="700.8" y1="258" x2="754.6" y2="258"/>
	</g>
	<g id="linea_cintura">
		
		<g id="linea">
			<path fill="#B37C5B" d="M421.2,261.3c-1.5,0-2.7-1.2-2.7-2.7c0-1.5,1.2-2.7,2.7-2.7c1.5,0,2.7,1.2,2.7,2.7
				C423.8,260.1,422.6,261.3,421.2,261.3"/>
			<line fill="none" stroke="#B37C5B" stroke-width="4" stroke-miterlimit="10" x1="421" y1="258.6" x2="492.9" y2="258.6"/>
			<path fill="#B37C5B" d="M492.8,261.3c1.5,0,2.7-1.2,2.7-2.7c0-1.5-1.2-2.7-2.7-2.7c-1.5,0-2.7,1.2-2.7,2.7
				C490.1,260.1,491.3,261.3,492.8,261.3"/>
			
				<line fill="none" stroke="#7F7878" stroke-width="2" stroke-miterlimit="10" stroke-dasharray="5.9,5.9" x1="642.3" y1="259" x2="480.3" y2="259"/>
		</g>
        <g id="letra">
            <text transform="matrix(1 0 0 1 654.6275 257.99)" fill="#B37C5B" font-family="'Raleway-Medium'" font-size="17.6742px">B.</text>
        </g>
	</g>
    <g id="medida_numeros" class="collapse">
		<text transform="matrix(1 0 0 1 548.4202 254.7151)"><tspan x="0" y="0" fill="#B37C5B" font-family="'Raleway-Medium'" font-size="17.6742px">102.5</tspan><tspan x="41.7" y="0" fill="#B37C5B" font-family="'Raleway-Medium'" font-size="10px">cm</tspan></text>
	</g>
</g>
</svg>
